<svg width="671" height="654" viewBox="0 0 671 654" fill="none" xmlns="http://www.w3.org/2000/svg">
<g opacity="0.05" filter="url(#filter0_d)">
<path d="M335.5 0C152.346 0 4 148.09 4 330.734C4 476.889 98.9747 600.829 230.663 644.527C247.238 647.641 253.316 637.404 253.316 628.624C253.316 620.771 253.039 599.96 252.902 572.39C160.689 592.332 141.241 528.019 141.241 528.019C126.158 489.847 104.362 479.637 104.362 479.637C74.3332 459.135 106.682 459.556 106.682 459.556C139.97 461.855 157.457 493.633 157.457 493.633C187.016 544.203 235.056 529.589 254.006 521.148C256.989 499.747 265.526 485.191 275.001 476.916C201.38 468.643 124.003 440.203 124.003 313.485C124.003 277.388 136.849 247.882 158.12 224.743C154.39 216.385 143.202 182.756 161.02 137.208C161.02 137.208 188.783 128.345 252.183 171.117C278.703 163.768 306.88 160.122 335.058 159.954C363.235 160.122 391.413 163.768 417.933 171.117C480.918 128.345 508.681 137.208 508.681 137.208C526.499 182.756 515.311 216.385 511.996 224.743C533.129 247.882 545.975 277.388 545.975 313.485C545.975 440.54 468.486 468.502 394.728 476.637C406.33 486.565 417.104 506.844 417.104 537.835C417.104 582.094 416.69 617.659 416.69 628.4C416.69 637.067 422.491 647.416 439.48 644.107C572.108 600.689 667 476.664 667 330.734C667 148.09 518.571 0 335.5 0Z" fill="#F2F2F2"/>
<path d="M160.896 559.607C177.575 573.434 205.428 584.46 250.418 575.461C250.494 589.52 250.604 601.671 250.689 611.07C250.762 619.11 250.816 625.138 250.816 628.624C250.816 632.493 249.472 636.503 246.523 639.186C243.669 641.782 238.913 643.496 231.288 642.101C100.673 598.683 6.5 475.717 6.5 330.734C6.5 149.475 153.722 2.5 335.5 2.5C517.196 2.5 664.5 149.476 664.5 330.734C664.5 475.495 570.406 598.546 438.852 641.682C430.996 643.179 426.218 641.467 423.398 638.897C420.48 636.238 419.19 632.239 419.19 628.4C419.19 624.865 419.235 618.633 419.295 610.272C419.326 605.957 419.361 601.075 419.397 595.703C419.5 579.934 419.604 559.972 419.604 537.835C419.604 509.691 410.871 489.907 400.27 478.507C435.641 474.143 471.826 464.792 499.614 441.574C528.907 417.099 548.475 377.561 548.475 313.485C548.475 277.333 535.798 247.612 514.879 224.205C518.818 213.562 528.247 180.363 511.009 136.297L510.575 135.188L509.441 134.826L508.681 137.208C509.441 134.826 509.439 134.826 509.436 134.825L509.43 134.823L509.417 134.819L509.382 134.808C509.356 134.8 509.323 134.79 509.282 134.779C509.202 134.756 509.094 134.727 508.958 134.693C508.686 134.625 508.303 134.539 507.808 134.45C506.816 134.272 505.376 134.08 503.472 133.994C499.662 133.821 494.012 134.07 486.409 135.677C471.361 138.857 448.686 147.352 417.485 168.401C391.061 161.194 363.058 157.621 335.073 157.454L335.058 157.454L335.043 157.454C307.056 157.621 279.051 161.194 252.626 168.402C221.219 147.351 198.441 138.856 183.342 135.676C175.714 134.07 170.051 133.821 166.236 133.994C164.329 134.08 162.887 134.272 161.894 134.45C161.398 134.539 161.015 134.625 160.744 134.693C160.608 134.727 160.499 134.756 160.419 134.779C160.379 134.79 160.345 134.8 160.319 134.808L160.284 134.819L160.271 134.823L160.265 134.825C160.262 134.825 160.26 134.826 161.02 137.208L160.26 134.826L159.126 135.188L158.692 136.297C141.483 180.289 150.842 213.475 155.194 224.245C134.163 247.648 121.503 277.356 121.503 313.485C121.503 377.393 141.043 416.963 170.286 441.532C198.042 464.851 234.186 474.346 269.513 478.782C261.364 487.617 254.525 501.093 251.733 519.414C242.26 523.482 226.632 528.52 209.932 527.029C192.648 525.487 173.987 516.944 159.629 492.395L159.627 492.392L159.606 492.355L159.581 492.31C159.541 492.24 159.485 492.142 159.411 492.015C159.264 491.763 159.048 491.401 158.763 490.943C158.194 490.028 157.351 488.732 156.237 487.176C154.01 484.067 150.687 479.901 146.288 475.658C137.508 467.187 124.289 458.266 106.854 457.062L106.785 457.057L106.715 457.056L106.682 459.556C106.715 457.056 106.714 457.056 106.713 457.056L106.71 457.056L106.703 457.056L106.679 457.056L106.597 457.055C106.565 457.055 106.527 457.055 106.482 457.055C106.431 457.055 106.372 457.056 106.305 457.056C106.056 457.058 105.701 457.064 105.264 457.079C104.393 457.109 103.182 457.176 101.824 457.325C99.2077 457.612 95.666 458.238 93.028 459.734C91.6828 460.496 90.3364 461.618 89.6111 463.268C88.8511 464.997 88.9486 466.901 89.7498 468.815C91.2471 472.393 95.4245 476.563 102.952 481.702L103.119 481.816L103.295 481.898L103.296 481.899L103.297 481.899L103.299 481.9L103.301 481.901L103.322 481.912C103.35 481.925 103.398 481.949 103.466 481.984C103.601 482.053 103.813 482.166 104.097 482.327C104.664 482.648 105.515 483.159 106.595 483.895C108.754 485.366 111.828 487.737 115.379 491.283C122.462 498.356 131.474 510.138 138.883 528.853C138.894 528.888 138.907 528.93 138.924 528.98C138.969 529.12 139.036 529.318 139.125 529.57C139.304 530.075 139.573 530.797 139.947 531.7C140.694 533.504 141.859 536.035 143.549 538.996C146.928 544.915 152.423 552.583 160.896 559.607Z" stroke="black" stroke-width="5"/>
</g>
<defs>
<filter id="filter0_d" x="0" y="0" width="671" height="653.098" filterUnits="userSpaceOnUse" color-interpolation-filters="sRGB">
<feFlood flood-opacity="0" result="BackgroundImageFix"/>
<feColorMatrix in="SourceAlpha" type="matrix" values="0 0 0 0 0 0 0 0 0 0 0 0 0 0 0 0 0 0 127 0"/>
<feOffset dy="4"/>
<feGaussianBlur stdDeviation="2"/>
<feColorMatrix type="matrix" values="0 0 0 0 0 0 0 0 0 0 0 0 0 0 0 0 0 0 0.25 0"/>
<feBlend mode="normal" in2="BackgroundImageFix" result="effect1_dropShadow"/>
<feBlend mode="normal" in="SourceGraphic" in2="effect1_dropShadow" result="shape"/>
</filter>
</defs>
</svg>
